<svg width="56" height="56" viewBox="0 0 56 56" fill="none" xmlns="http://www.w3.org/2000/svg">
<path d="M18.4556 0.000117123C18.3935 -0.000351627 18.3316 0.00175783 18.2689 0.00363283C18.2021 0.00562502 18.1347 0.0100781 18.0676 0.0146484C16.2754 0.136289 14.3579 1.18488 12.7611 3.73535C9.54115 8.87813 9.41834 15.1822 12.0763 19.7057C13.845 22.7162 16.8126 25.0011 21.0851 25.7006C21.187 24.9461 21.403 24.2114 21.7258 23.5218C20.3893 22.0772 19.6153 20.4465 19.3528 18.7098C18.7966 15.0325 20.3822 11.1723 22.7547 7.57348C23.7501 6.06363 23.8622 4.70004 23.4983 3.51211C23.1343 2.32383 22.2409 1.29434 21.0593 0.670312C20.2803 0.258984 19.3899 0.00550775 18.4556 0.000117123ZM41.6662 3.48645C37.3221 3.4923 33.2472 5.19234 30.5885 8.09309C28.0938 10.8148 26.7641 14.5801 27.6146 19.2114C27.9388 19.1683 28.2654 19.1463 28.5924 19.1455C28.8559 19.1455 29.116 19.1593 29.3727 19.1858C30.3896 17.0905 31.8667 15.6253 33.6719 14.7582C37.0244 13.1481 41.1811 13.5342 45.3174 14.7472C47.0525 15.2562 48.3899 14.964 49.419 14.2676C50.4481 13.571 51.1684 12.4125 51.4186 11.0998C51.9187 8.47395 50.7072 5.3107 46.0572 4.06477C44.592 3.67219 43.1143 3.48445 41.6662 3.48645ZM28.4351 6.83707C27.4199 6.83707 26.42 6.91828 25.4468 7.0677C25.2401 7.64215 24.9563 8.21648 24.5861 8.77805C22.3695 12.1402 21.0916 15.5648 21.5172 18.3802C21.6927 19.5403 22.1372 20.6442 22.9563 21.6687C23.6719 20.8732 24.5465 20.2369 25.5236 19.8009C24.5475 14.5791 25.9388 10.0662 28.7721 6.84082C28.6593 6.83883 28.5481 6.83707 28.4351 6.83707ZM38.894 15.8971C38.7745 15.8964 38.6565 15.8982 38.5387 15.9006C37.0736 15.9299 35.7431 16.1927 34.6203 16.732C33.3611 17.3367 32.289 18.2786 31.4963 19.7277C32.3256 20.0745 33.0869 20.5655 33.7449 21.1779C36.4838 19.6097 39.2877 18.9373 41.9591 19.0208C43.5329 19.0703 45.0601 19.3835 46.5001 19.9255C46.6395 19.978 46.7762 20.0338 46.9138 20.0903C46.5593 19.0435 46.1158 18.0291 45.5881 17.058C45.2892 17.0046 44.9934 16.935 44.702 16.8495C42.6641 16.2518 40.6855 15.907 38.894 15.8971ZM9.89013 20.2843C9.52114 21.4112 9.25636 22.5696 9.09912 23.7449C9.5698 24.1059 9.99958 24.5173 10.3808 24.9718C12.9742 28.0527 15.8959 30.2488 18.7158 30.6408C19.7672 30.7868 20.8369 30.7111 21.9311 30.3294C21.5175 29.5712 21.2375 28.7475 21.1035 27.8943C16.0454 27.1363 12.3185 24.4437 10.1867 20.8154C10.0842 20.6405 9.9854 20.4633 9.89013 20.2843ZM41.1754 21.1705C41.07 21.1724 40.963 21.1767 40.8567 21.1815C38.9914 21.2647 37.0558 21.7968 35.1147 22.8732C35.5227 23.563 35.8182 24.3135 35.9899 25.0963C37.8643 25.4007 39.4371 26.1709 40.6957 27.3229C43.4394 29.8336 44.6302 33.8353 45.0463 38.1259C45.2209 39.9259 45.9906 41.0561 47.0202 41.7514C48.05 42.4468 49.3932 42.6826 50.7045 42.4253C53.3272 41.9108 55.8116 39.6061 55.2344 34.8264C54.5072 28.8026 50.6413 23.8204 45.7312 21.9724C44.2929 21.431 42.7603 21.1418 41.1754 21.1705ZM28.5923 21.3353C25.6029 21.3353 23.2017 23.7364 23.2017 26.7259C23.2017 29.7157 25.6029 32.1165 28.5923 32.1165C31.5821 32.1165 33.9794 29.7157 33.9794 26.7259C33.9794 23.7364 31.5821 21.3353 28.5923 21.3353ZM5.02322 24.5142C3.7808 24.5256 2.54072 25.0931 1.6065 26.0487C-0.261938 27.96 -1.00069 31.2652 2.18517 34.8744C6.20025 39.423 12.2101 41.3338 17.3024 40.0709C20.5585 39.2634 23.4907 37.2066 25.3883 33.589C24.6021 33.2192 23.8849 32.7175 23.2679 32.1059C21.6456 32.8153 20.0119 33.0343 18.4156 32.8125C14.7319 32.3007 11.4797 29.6797 8.70373 26.382C7.53923 24.9987 6.26564 24.503 5.02322 24.5142ZM36.1439 27.3048C36.0716 28.2511 35.8269 29.1517 35.4369 29.9708C39.1064 33.3266 40.6991 37.5254 40.5163 41.6455C40.5163 41.649 40.5166 41.6528 40.5163 41.6565C41.4177 40.944 42.2547 40.1535 43.0176 39.2944C42.9492 38.9778 42.8991 38.6575 42.8676 38.3351C42.4788 34.3267 41.3167 30.8602 39.2163 28.938C38.3761 28.1689 37.3739 27.5963 36.1439 27.3048ZM34.2211 31.7872C33.6803 32.3886 33.0474 32.9003 32.3461 33.3032C32.6273 35.1621 32.3782 36.8811 31.6796 38.4229C30.1445 41.8107 26.7117 44.1878 22.7624 45.9155C21.1059 46.6404 20.2731 47.7202 19.9317 48.9149C19.5903 50.1097 19.7782 51.4614 20.4297 52.6283C21.7329 54.9618 24.6971 56.6092 29.0613 54.5766C34.5615 52.0148 38.0941 46.792 38.3266 41.5504C38.4783 38.1308 37.2855 34.6669 34.2211 31.7872ZM30.2845 34.1122C29.7296 34.2407 29.1619 34.3059 28.5923 34.3064C28.215 34.3064 27.8458 34.2759 27.4829 34.222C25.2953 38.5693 21.77 41.2208 17.8296 42.1982C17.6392 42.2453 17.4464 42.2903 17.2545 42.33C18.419 43.1451 19.6692 43.8304 20.9827 44.3734C21.2746 44.2002 21.5768 44.0448 21.8874 43.9082C25.5765 42.2943 28.5124 40.115 29.6874 37.5214C30.1555 36.489 30.3865 35.3645 30.2845 34.1122Z" fill="#88BFB5"/>
</svg>
