<svg width="272" height="60" viewBox="0 0 272 60" fill="none" xmlns="http://www.w3.org/2000/svg">
<path d="M129.706 2.25012C129.643 2.24965 129.582 2.25176 129.519 2.25363C129.452 2.25563 129.385 2.26008 129.318 2.26465C127.525 2.38629 125.608 3.43488 124.011 5.98535C120.791 11.1281 120.668 17.4322 123.326 21.9557C125.095 24.9662 128.063 27.2511 132.335 27.9506C132.437 27.1961 132.653 26.4614 132.976 25.7718C131.639 24.3272 130.865 22.6965 130.603 20.9598C130.047 17.2825 131.632 13.4223 134.005 9.82348C135 8.31363 135.112 6.95004 134.748 5.76211C134.384 4.57383 133.491 3.54434 132.309 2.92031C131.53 2.50898 130.64 2.25551 129.706 2.25012ZM152.916 5.73645C148.572 5.7423 144.497 7.44234 141.838 10.3431C139.344 13.0648 138.014 16.8301 138.865 21.4614C139.189 21.4183 139.515 21.3963 139.842 21.3955C140.106 21.3955 140.366 21.4093 140.623 21.4358C141.64 19.3405 143.117 17.8753 144.922 17.0082C148.274 15.3981 152.431 15.7842 156.567 16.9972C158.303 17.5062 159.64 17.214 160.669 16.5176C161.698 15.821 162.418 14.6625 162.669 13.3498C163.169 10.7239 161.957 7.5607 157.307 6.31477C155.842 5.92219 154.364 5.73445 152.916 5.73645ZM139.685 9.08707C138.67 9.08707 137.67 9.16828 136.697 9.3177C136.49 9.89215 136.206 10.4665 135.836 11.028C133.62 14.3902 132.342 17.8148 132.767 20.6302C132.943 21.7903 133.387 22.8942 134.206 23.9187C134.922 23.1232 135.797 22.4869 136.774 22.0509C135.797 16.8291 137.189 12.3162 140.022 9.09082C139.909 9.08883 139.798 9.08707 139.685 9.08707ZM150.144 18.1471C150.025 18.1464 149.906 18.1482 149.789 18.1506C148.324 18.1799 146.993 18.4427 145.87 18.982C144.611 19.5867 143.539 20.5286 142.746 21.9777C143.576 22.3245 144.337 22.8155 144.995 23.4279C147.734 21.8597 150.538 21.1873 153.209 21.2708C154.783 21.3203 156.31 21.6335 157.75 22.1755C157.89 22.228 158.026 22.2838 158.164 22.3403C157.809 21.2935 157.366 20.2791 156.838 19.308C156.539 19.2546 156.243 19.185 155.952 19.0995C153.914 18.5018 151.935 18.157 150.144 18.1471ZM121.14 22.5343C120.771 23.6612 120.506 24.8196 120.349 25.9949C120.82 26.3559 121.25 26.7673 121.631 27.2218C124.224 30.3027 127.146 32.4988 129.966 32.8908C131.017 33.0368 132.087 32.9611 133.181 32.5794C132.768 31.8212 132.488 30.9975 132.353 30.1443C127.295 29.3863 123.568 26.6937 121.437 23.0654C121.334 22.8905 121.235 22.7133 121.14 22.5343ZM152.425 23.4205C152.32 23.4224 152.213 23.4267 152.107 23.4315C150.241 23.5147 148.306 24.0468 146.365 25.1232C146.773 25.813 147.068 26.5635 147.24 27.3463C149.114 27.6507 150.687 28.4209 151.946 29.5729C154.689 32.0836 155.88 36.0853 156.296 40.3759C156.471 42.1759 157.241 43.3061 158.27 44.0014C159.3 44.6968 160.643 44.9326 161.955 44.6753C164.577 44.1608 167.062 41.8561 166.484 37.0764C165.757 31.0526 161.891 26.0704 156.981 24.2224C155.543 23.681 154.01 23.3918 152.425 23.4205ZM139.842 23.5853C136.853 23.5853 134.452 25.9864 134.452 28.9759C134.452 31.9657 136.853 34.3665 139.842 34.3665C142.832 34.3665 145.229 31.9657 145.229 28.9759C145.229 25.9864 142.832 23.5853 139.842 23.5853ZM116.273 26.7642C115.031 26.7756 113.791 27.3431 112.856 28.2987C110.988 30.21 110.249 33.5152 113.435 37.1244C117.45 41.673 123.46 43.5838 128.552 42.3209C131.809 41.5134 134.741 39.4566 136.638 35.839C135.852 35.4692 135.135 34.9675 134.518 34.3559C132.896 35.0653 131.262 35.2843 129.666 35.0625C125.982 34.5507 122.73 31.9297 119.954 28.632C118.789 27.2487 117.516 26.753 116.273 26.7642ZM147.394 29.5548C147.322 30.5011 147.077 31.4017 146.687 32.2208C150.356 35.5766 151.949 39.7754 151.766 43.8955C151.766 43.899 151.767 43.9028 151.766 43.9065C152.668 43.194 153.505 42.4035 154.268 41.5444C154.199 41.2278 154.149 40.9075 154.118 40.5851C153.729 36.5767 152.567 33.1102 150.466 31.188C149.626 30.4189 148.624 29.8463 147.394 29.5548ZM145.471 34.0372C144.93 34.6386 144.297 35.1503 143.596 35.5532C143.877 37.4121 143.628 39.1311 142.93 40.6729C141.394 44.0607 137.962 46.4378 134.012 48.1655C132.356 48.8904 131.523 49.9702 131.182 51.1649C130.84 52.3597 131.028 53.7114 131.68 54.8783C132.983 57.2118 135.947 58.8592 140.311 56.8266C145.811 54.2648 149.344 49.042 149.577 43.8004C149.728 40.3808 148.536 36.9169 145.471 34.0372ZM141.535 36.3622C140.98 36.4907 140.412 36.5559 139.842 36.5564C139.465 36.5564 139.096 36.5259 138.733 36.472C136.545 40.8193 133.02 43.4708 129.08 44.4482C128.889 44.4953 128.696 44.5403 128.505 44.58C129.669 45.3951 130.919 46.0804 132.233 46.6234C132.525 46.4502 132.827 46.2948 133.137 46.1582C136.826 44.5443 139.762 42.365 140.937 39.7714C141.405 38.739 141.636 37.6145 141.535 36.3622Z" fill="#88BFB5" fill-opacity="0.36"/>
<path d="M18.06 17.5V17.95H3.885V32.35H17.025V32.8H3.885V49H0.15V17.5H18.06ZM26.7074 49C24.0674 49 22.4024 48.31 21.7124 46.93C21.5624 46.63 21.4874 46.36 21.4874 46.12V15.295H24.6374V45.805C24.6374 46.675 24.8024 47.35 25.1324 47.83C25.4924 48.28 25.8524 48.52 26.2124 48.55L26.7074 48.64H28.1024V49H26.7074ZM39.9191 49.18C36.7691 49.18 34.2041 48.28 32.2241 46.48C30.2441 44.68 29.2541 41.905 29.2541 38.155C29.2541 34.405 30.2741 31.495 32.3141 29.425C34.3841 27.355 36.9941 26.32 40.1441 26.32C43.3241 26.32 45.9041 27.22 47.8841 29.02C49.8641 30.82 50.8541 33.595 50.8541 37.345C50.8541 41.095 49.8191 44.005 47.7491 46.075C45.7091 48.145 43.0991 49.18 39.9191 49.18ZM40.2341 26.68C37.9541 26.68 36.0641 27.7 34.5641 29.74C33.0641 31.75 32.3141 34.57 32.3141 38.2C32.3141 41.8 33.0041 44.47 34.3841 46.21C35.7641 47.95 37.5941 48.82 39.8741 48.82C42.1541 48.82 44.0441 47.815 45.5441 45.805C47.0441 43.765 47.7941 40.945 47.7941 37.345C47.7941 33.715 47.1041 31.03 45.7241 29.29C44.3441 27.55 42.5141 26.68 40.2341 26.68ZM84.0775 26.77L84.3475 26.5C84.4675 26.56 84.6175 26.74 84.7975 27.04C85.0075 27.34 85.1275 27.61 85.1575 27.85C85.2175 28.09 85.2475 28.315 85.2475 28.525C85.2475 29.335 85.0675 30.16 84.7075 31L76.5175 49H76.0675L69.5875 31.585L61.6675 49H61.2175L52.8475 26.5H55.9975L62.8825 45.13L69.3625 31.045L67.6975 26.5H70.8475L77.7325 45.13L84.2575 31C84.6175 30.37 84.7975 29.62 84.7975 28.75C84.7975 27.88 84.5575 27.22 84.0775 26.77ZM90.8053 38.02C90.8053 41.74 91.4503 44.47 92.7403 46.21C94.0603 47.95 95.7853 48.82 97.9153 48.82C100.915 48.82 103.585 48.37 105.925 47.47L106.06 47.785C103.66 48.715 100.945 49.18 97.9153 49.18C94.9153 49.18 92.4703 48.28 90.5803 46.48C88.6903 44.68 87.7453 41.905 87.7453 38.155C87.7453 34.405 88.7353 31.495 90.7153 29.425C92.6953 27.355 95.2153 26.32 98.2753 26.32C100.735 26.32 102.805 27.055 104.485 28.525C106.165 29.995 107.005 32.17 107.005 35.05C107.005 35.2 107.005 35.35 107.005 35.5H90.9403C90.8503 36.31 90.8053 37.15 90.8053 38.02ZM103.945 35.14C103.915 32.26 103.36 30.13 102.28 28.75C101.2 27.37 99.8053 26.68 98.0953 26.68C96.3853 26.68 94.8553 27.43 93.5053 28.93C92.1853 30.43 91.3453 32.5 90.9853 35.14H103.945ZM117.434 28.435V27.49C116.084 28.03 114.854 29.125 113.744 30.775C112.634 32.395 112.049 33.925 111.989 35.365V49H108.839V26.5H111.989V33.655C112.469 31.915 113.384 30.28 114.734 28.75C116.084 27.19 117.614 26.38 119.324 26.32H119.504C120.104 26.32 120.599 26.53 120.989 26.95C121.409 27.34 121.619 27.835 121.619 28.435C121.619 29.035 121.409 29.53 120.989 29.92C120.599 30.31 120.104 30.505 119.504 30.505C118.904 30.505 118.409 30.31 118.019 29.92C117.629 29.53 117.434 29.035 117.434 28.435ZM154.613 49.18C149.003 49.18 144.848 47.59 142.148 44.41C141.188 43.27 140.408 41.755 139.808 39.865C139.208 37.975 138.908 35.68 138.908 32.98C138.908 30.28 139.343 27.865 140.213 25.735C141.113 23.575 142.328 21.91 143.858 20.74C146.828 18.55 150.413 17.455 154.613 17.455C155.963 17.455 157.283 17.56 158.573 17.77C159.863 17.95 160.823 18.145 161.453 18.355L162.398 18.67L162.263 19.12C159.923 18.31 157.373 17.905 154.613 17.905C151.433 17.905 148.778 18.94 146.648 21.01C145.028 22.54 143.888 24.79 143.228 27.76C142.838 29.44 142.643 31.495 142.643 33.925C142.643 36.355 142.988 38.605 143.678 40.675C144.368 42.715 145.148 44.23 146.018 45.22C146.918 46.21 147.998 47.005 149.258 47.605C150.518 48.175 151.523 48.505 152.273 48.595C153.023 48.685 153.908 48.73 154.928 48.73C155.978 48.73 157.373 48.61 159.113 48.37V39.1H153.668V38.65H164.783V39.1H162.848V47.965C160.568 48.775 157.823 49.18 154.613 49.18ZM185.388 49C183.348 49 181.953 48.61 181.203 47.83C180.513 47.17 180.168 46.6 180.168 46.12V45.175C178.698 47.845 176.343 49.18 173.103 49.18C169.323 49.18 167.178 47.47 166.668 44.05C166.608 43.69 166.578 43.33 166.578 42.97C166.578 42.58 166.638 42.16 166.758 41.71C166.878 41.26 167.223 40.765 167.793 40.225C168.933 39.145 171.438 38.485 175.308 38.245C176.268 38.155 177.153 38.11 177.963 38.11C178.773 38.11 179.508 38.14 180.168 38.2V30.73C180.108 30.7 180.108 30.565 180.168 30.325C180.228 30.055 180.168 29.725 179.988 29.335C179.838 28.915 179.628 28.51 179.358 28.12C179.088 27.73 178.608 27.4 177.918 27.13C177.228 26.83 176.328 26.68 175.218 26.68C174.108 26.68 172.803 26.89 171.303 27.31C169.833 27.7 168.753 28.09 168.063 28.48L167.883 28.165C170.553 26.935 173.268 26.32 176.028 26.32C179.118 26.32 181.158 26.875 182.148 27.985C182.928 28.855 183.318 29.77 183.318 30.73V45.805C183.318 46.675 183.483 47.35 183.813 47.83C184.173 48.28 184.533 48.52 184.893 48.55L185.388 48.64H186.783V49H185.388ZM173.823 48.82C175.413 48.82 176.838 48.28 178.098 47.2C179.388 46.09 180.078 45.025 180.168 44.005V38.56C179.358 38.5 178.533 38.47 177.693 38.47C176.883 38.47 176.073 38.515 175.263 38.605C172.983 38.875 171.498 39.385 170.808 40.135C170.118 40.885 169.773 41.92 169.773 43.24C169.773 43.48 169.788 43.75 169.818 44.05C170.088 47.23 171.423 48.82 173.823 48.82ZM197.854 28.435V27.49C196.504 28.03 195.274 29.125 194.164 30.775C193.054 32.395 192.469 33.925 192.409 35.365V49H189.259V26.5H192.409V33.655C192.889 31.915 193.804 30.28 195.154 28.75C196.504 27.19 198.034 26.38 199.744 26.32H199.924C200.524 26.32 201.019 26.53 201.409 26.95C201.829 27.34 202.039 27.835 202.039 28.435C202.039 29.035 201.829 29.53 201.409 29.92C201.019 30.31 200.524 30.505 199.924 30.505C199.324 30.505 198.829 30.31 198.439 29.92C198.049 29.53 197.854 29.035 197.854 28.435ZM204.069 38.56C204.069 34.66 205.014 31.645 206.904 29.515C208.794 27.385 211.629 26.32 215.409 26.32C217.179 26.32 218.964 26.77 220.764 27.67V15.295H223.914V45.805C223.914 46.675 224.079 47.35 224.409 47.83C224.769 48.28 225.129 48.52 225.489 48.55L225.984 48.64H227.379V49H224.634C223.404 49 222.459 48.73 221.799 48.19C221.169 47.65 220.839 47.11 220.809 46.57L220.764 45.805V45.085C220.194 46.135 219.249 47.065 217.929 47.875C216.609 48.685 215.049 49.09 213.249 49.09C207.129 48.94 204.069 45.43 204.069 38.56ZM213.294 48.73C215.304 48.73 217.029 48.19 218.469 47.11C219.909 46.03 220.674 44.965 220.764 43.915V28.075C218.634 27.145 216.804 26.68 215.274 26.68C212.604 26.68 210.594 27.73 209.244 29.83C207.894 31.9 207.219 34.81 207.219 38.56C207.219 45.34 209.244 48.73 213.294 48.73ZM231.782 38.02C231.782 41.74 232.427 44.47 233.717 46.21C235.037 47.95 236.762 48.82 238.892 48.82C241.892 48.82 244.562 48.37 246.902 47.47L247.037 47.785C244.637 48.715 241.922 49.18 238.892 49.18C235.892 49.18 233.447 48.28 231.557 46.48C229.667 44.68 228.722 41.905 228.722 38.155C228.722 34.405 229.712 31.495 231.692 29.425C233.672 27.355 236.192 26.32 239.252 26.32C241.712 26.32 243.782 27.055 245.462 28.525C247.142 29.995 247.982 32.17 247.982 35.05C247.982 35.2 247.982 35.35 247.982 35.5H231.917C231.827 36.31 231.782 37.15 231.782 38.02ZM244.922 35.14C244.892 32.26 244.337 30.13 243.257 28.75C242.177 27.37 240.782 26.68 239.072 26.68C237.362 26.68 235.832 27.43 234.482 28.93C233.162 30.43 232.322 32.5 231.962 35.14H244.922ZM268.491 49C267.261 49 266.316 48.73 265.656 48.19C265.026 47.65 264.696 47.11 264.666 46.57L264.621 45.805V31.675C264.621 29.305 264.006 27.79 262.776 27.13C262.146 26.83 261.366 26.68 260.436 26.68C258.516 26.68 256.791 27.445 255.261 28.975C253.731 30.475 252.966 31.825 252.966 33.025V49H249.816V26.5H252.966V31.63C253.476 30.34 254.421 29.14 255.801 28.03C257.181 26.89 258.696 26.32 260.346 26.32C261.996 26.32 263.331 26.485 264.351 26.815C265.401 27.115 266.166 27.55 266.646 28.12C267.396 29.05 267.771 30.25 267.771 31.72V45.805C267.771 46.675 267.936 47.35 268.266 47.83C268.626 48.28 268.986 48.52 269.346 48.55L269.841 48.64H271.236V49H268.491Z" fill="#FAFAFA"/>
</svg>
